<?xml version="1.0" encoding="utf-8"?>
<!-- Generator: Adobe Illustrator 16.0.3, SVG Export Plug-In . SVG Version: 6.00 Build 0)  -->
<!DOCTYPE svg PUBLIC "-//W3C//DTD SVG 1.1//EN" "http://www.w3.org/Graphics/SVG/1.1/DTD/svg11.dtd">
<svg version="1.1"
	 id="svg5512" xmlns:inkscape="http://www.inkscape.org/namespaces/inkscape" xmlns:sodipodi="http://sodipodi.sourceforge.net/DTD/sodipodi-0.dtd" xmlns:svg="http://www.w3.org/2000/svg" xmlns:rdf="http://www.w3.org/1999/02/22-rdf-syntax-ns#" xmlns:cc="http://creativecommons.org/ns#" xmlns:dc="http://purl.org/dc/elements/1.1/" inkscape:version="0.48.5 r10040" sodipodi:docname="netz39-logo-final.svg"
	 xmlns="http://www.w3.org/2000/svg" xmlns:xlink="http://www.w3.org/1999/xlink" x="0px" y="0px" width="165.678px"
	 height="153.635px" viewBox="60.438 72.787 165.678 153.635" enable-background="new 60.438 72.787 165.678 153.635"
	 xml:space="preserve">
<g id="Ebene_3">
	<polygon fill="#FFFFFF" stroke="#1D1D1B" stroke-miterlimit="10" points="157.333,106.417 176.667,119.167 185.833,106.417 
		165.333,93.833 	"/>
</g>
<sodipodi:namedview  units="px" pagecolor="#ffffff" bordercolor="#666666" borderopacity="1" objecttolerance="10" gridtolerance="10" guidetolerance="10" id="namedview12" showgrid="false" inkscape:zoom="1" inkscape:cx="150" inkscape:cy="149.81752" fit-margin-top="5" fit-margin-left="5" inkscape:window-x="1815" inkscape:pageshadow="2" inkscape:window-y="12" inkscape:window-width="938" inkscape:window-height="799" inkscape:pageopacity="0" inkscape:window-maximized="0" inkscape:current-layer="svg5512" inkscape:document-units="px" fit-margin-right="5" fit-margin-bottom="5">
	</sodipodi:namedview>
<g id="g4413" transform="translate(-448.05262,-67.701334)">
	<g id="path4996-4-0-4-8-9-7-2-6-0-9-9-2" inkscape:connector-curvature="0" sodipodi:nodetypes="ccccsssccssccc">
		<path d="M565.339,289.123c-28.589,0-51.848-23.241-51.848-51.809c0-2.762,2.239-5,5-5h10.406c2.761,0,5,2.238,5,5
			c0,17.314,14.104,31.401,31.441,31.401c17.315,0,31.401-14.087,31.401-31.401c0-17.336-14.086-31.44-31.401-31.44h-12.592
			c-2.024,0-3.849-1.221-4.622-3.092s-0.34-4.024,1.094-5.452c6.704-6.673,13.4-13.354,20.089-20.042H534.12c-2.761,0-5-2.239-5-5
			v-10.406c0-2.761,2.239-5,5-5l72.397-0.001c2.022,0,3.847,1.219,4.62,3.088c0.773,1.87,0.345,4.021-1.087,5.45l-24.252,24.22
			c18.81,8.047,31.348,26.61,31.348,47.676C617.146,265.882,593.905,289.123,565.339,289.123z"/>
		<path fill="#FFFFFF" d="M606.517,161.881l-29.962,29.923c20.44,5.031,35.591,23.519,35.591,45.511
			c0,25.859-20.948,46.809-46.808,46.809c-25.859,0-46.848-20.95-46.848-46.809h10.406c0,20.112,16.329,36.401,36.441,36.401
			c20.112,0,36.401-16.289,36.401-36.401c0-20.11-16.289-36.44-36.401-36.44h-12.592c9.557-9.513,19.099-19.043,28.627-28.586
			H534.12v-10.406v-0.001H606.517 M606.517,151.881H534.12c-5.523,0-10,4.477-10,10v10.407c0,5.523,4.477,10,10,10h23.107
			c-3.892,3.884-7.744,7.724-11.536,11.499c-2.87,2.856-3.733,7.161-2.188,10.904c1.545,3.742,5.194,6.184,9.243,6.184h12.592
			c14.558,0,26.401,11.861,26.401,26.44c0,14.558-11.844,26.401-26.401,26.401c-14.58,0-26.441-11.844-26.441-26.401
			c0-5.522-4.477-10-10-10h-10.406c-5.523,0-10,4.478-10,10c0,31.324,25.502,56.809,56.848,56.809
			c31.324,0,56.808-25.484,56.808-56.809c0-20.598-10.935-39.012-27.932-49.014l19.369-19.344c2.862-2.859,3.721-7.161,2.174-10.899
			S610.563,151.881,606.517,151.881L606.517,151.881z"/>
	</g>
	<g id="path5018-1-3-2-1-4-7-5-6" inkscape:connector-curvature="0">
		<path d="M651.196,283.447c-9.646-0.001-17.503-7.851-17.515-17.498c0,0,0-48.891,0-48.896c-0.183-0.013-0.414-0.022-0.703-0.022
			c-0.922,0-2.077,0.094-3.3,0.192c-1.574,0.126-3.358,0.271-5.239,0.271c-6.986,0-12.385-2.191-16.505-6.699
			c-9.085-9.941-13.771-23.656-12.884-28.366c0.93-4.915,4.867-7.152,8.134-7.152c0.112,0,0.224,0.002,0.334,0.007
			c2.005,0.09,3.412,1.208,6.813,3.91c3.306,2.627,8.303,6.597,12.497,8.207c0.347,0.133,0.699,0.198,1.079,0.197
			c3.586,0,8.479-5.414,9.693-10.726c1.108-4.849-1.378-6.049-2.194-6.443c-4.146-2.002-15.994-9.313-17.478-10.933
			c-1.199-1.31-1.688-3.216-1.378-5.367c0.42-2.914,2.094-5.513,4.477-6.951c3.362-2.028,12.726-2.176,13.782-2.187l0.645-0.003
			c5.125,0,12.584,0.559,19.016,3.22c22.104,9.147,19.599,29.314,18.529,37.926c-0.14,1.119-0.283,2.277-0.283,2.795v77.015
			c-0.008,9.643-7.857,17.493-17.499,17.504C651.216,283.447,651.198,283.447,651.196,283.447z"/>
		<path fill="#FFFFFF" d="M631.455,149.488c5.592,0,12.107,0.731,17.295,2.878c22.17,9.174,15.467,31.096,15.467,36.563v14.577
			v62.438c-0.006,7.18-5.824,12.996-13.004,13.004c-0.006,0-0.011,0-0.017,0c-7.181,0-13.006-5.821-13.015-13.004V217.07
			c0-3.735-2.065-4.54-5.203-4.54c-2.377,0-5.367,0.463-8.539,0.463c-4.435,0-9.225-0.904-13.184-5.235
			c-8.774-9.601-12.265-21.941-11.783-24.497c0.469-2.478,2.263-3.485,3.712-3.485c0.046,0,0.091,0.001,0.136,0.003
			c1.469,0.066,10.199,8.868,17.896,11.823c0.883,0.339,1.784,0.496,2.691,0.496c10.252,0,21.045-20.127,9.455-25.722
			c-4.684-2.261-15.412-9.152-16.115-9.92c-0.703-0.768-0.166-4.055,2.105-5.426c1.136-0.685,5.776-1.484,11.5-1.539
			C631.053,149.489,631.253,149.488,631.455,149.488 M631.455,140.488c-0.23,0-0.459,0.001-0.687,0.003
			c-4.315,0.042-12.139,0.465-16.063,2.832c-3.527,2.129-5.997,5.928-6.607,10.163c-0.507,3.511,0.386,6.724,2.512,9.047
			c2.339,2.553,14.911,10.03,18.76,11.908c0.048,0.7-0.194,2.469-1.507,4.668c-1.458,2.445-3.122,3.611-3.843,3.918
			c-3.492-1.481-7.919-4.999-10.889-7.358c-3.71-2.948-5.949-4.728-9.407-4.882c-0.185-0.008-0.361-0.012-0.539-0.012
			c-6.188,0-11.351,4.446-12.555,10.812c-1.25,6.634,4.466,21.828,13.982,32.241c5.021,5.493,11.506,8.163,19.827,8.163
			c1.714,0,3.302-0.104,4.742-0.216v44.167c0.015,12.138,9.891,22.004,22.015,22.004c12.145-0.014,22.011-9.881,22.021-21.996
			v-62.445v-14.577c0.01-0.318,0.147-1.43,0.249-2.241c0.567-4.57,1.518-12.22-0.652-20.222
			c-2.774-10.23-9.905-17.981-20.622-22.416C645.077,141.106,636.988,140.488,631.455,140.488L631.455,140.488z"/>
	</g>
	<g id="g4409" transform="matrix(-1,0,0,-1,1130.6373,475.18252)">
		<g id="path4996-4-0-4-2-1-9-8-5-8-9" inkscape:connector-curvature="0">
			<path d="M565.339,204.688c17.968,0,32.587,14.637,32.588,32.627c0,13.535-8.136,25.457-20.727,30.371
				c-0.47,0.184-0.963,0.274-1.454,0.274c-0.794,0-1.583-0.236-2.257-0.697c-1.091-0.745-1.744-1.981-1.744-3.303v-11.742
				c0-1.306,0.638-2.53,1.708-3.278c3.799-2.655,6.066-7.001,6.066-11.623c0-7.842-6.362-14.222-14.181-14.222
				c-7.842,0-14.221,6.38-14.221,14.222c0,4.621,2.279,8.964,6.097,11.616c1.076,0.748,1.718,1.975,1.718,3.285v11.742
				c0,1.321-0.652,2.557-1.743,3.303c-0.674,0.46-1.463,0.697-2.257,0.697c-0.49,0-0.983-0.09-1.453-0.273
				c-12.616-4.919-20.768-16.841-20.768-30.371C532.712,219.325,547.348,204.688,565.339,204.688z"/>
			<path fill="#FFFFFF" d="M554.933,263.96c-10.66-4.156-18.221-14.514-18.221-26.645c0-15.803,12.825-28.627,28.627-28.627
				c15.802,0,28.587,12.824,28.588,28.627c0,12.131-7.532,22.488-18.181,26.645v-11.742c4.699-3.285,7.774-8.721,7.774-14.901
				c0-10.056-8.125-18.222-18.181-18.222s-18.221,8.166-18.221,18.222c0,6.19,3.091,11.619,7.815,14.901V263.96 M554.932,271.96
				c1.589,0,3.166-0.473,4.515-1.395c2.181-1.491,3.486-3.962,3.486-6.605v-11.742c0-2.62-1.283-5.075-3.436-6.57
				c-2.783-1.934-4.379-4.97-4.379-8.331c0-5.637,4.585-10.222,10.221-10.222c5.614,0,10.181,4.585,10.181,10.222
				c0,3.317-1.629,6.437-4.358,8.345c-2.141,1.497-3.417,3.944-3.417,6.557v11.742c0,2.643,1.305,5.115,3.487,6.605
				c1.349,0.921,2.925,1.395,4.513,1.395c0.982,0,1.968-0.181,2.908-0.547c14.137-5.518,23.272-18.902,23.272-34.097
				c-0.001-20.196-16.415-36.627-36.588-36.627c-20.196,0-36.627,16.431-36.627,36.627c0,15.191,9.151,28.575,23.315,34.098
				C552.966,271.78,553.952,271.96,554.932,271.96L554.932,271.96z"/>
		</g>
		<g id="rect5023-1-6-7-7-5-2-9-1-8-8" inkscape:connector-curvature="0">
			<path d="M565.339,229.592c4.236,0,7.683,3.465,7.683,7.723v31.179c0,1.381-1.119,2.5-2.5,2.5h-10.406c-1.381,0-2.5-1.119-2.5-2.5
				v-31.179C557.616,233.057,561.08,229.592,565.339,229.592z"/>
			<path fill="#FFFFFF" d="M560.116,268.494v-31.179c0-2.873,2.35-5.223,5.223-5.223s5.183,2.35,5.183,5.223v31.179H560.116
				 M560.116,273.494h10.406c2.761,0,5-2.239,5-5v-31.179c0-5.637-4.568-10.223-10.183-10.223c-5.637,0-10.223,4.586-10.223,10.223
				v31.179C555.116,271.255,557.355,273.494,560.116,273.494L560.116,273.494z"/>
		</g>
	</g>
</g>
</svg>
