<?xml version="1.0" encoding="UTF-8" standalone="no"?>
<!-- Created with Inkscape (http://www.inkscape.org/) -->

<svg
   version="1.1"
   width="146.67799"
   height="134.63455"
   id="svg5512"
   inkscape:version="1.2.2 (732a01da63, 2022-12-09, custom)"
   sodipodi:docname="netz39-logo-final (Kopie).svg"
   xmlns:inkscape="http://www.inkscape.org/namespaces/inkscape"
   xmlns:sodipodi="http://sodipodi.sourceforge.net/DTD/sodipodi-0.dtd"
   xmlns="http://www.w3.org/2000/svg"
   xmlns:svg="http://www.w3.org/2000/svg"
   xmlns:rdf="http://www.w3.org/1999/02/22-rdf-syntax-ns#"
   xmlns:cc="http://creativecommons.org/ns#"
   xmlns:dc="http://purl.org/dc/elements/1.1/">
  <sodipodi:namedview
     pagecolor="#ffffff"
     bordercolor="#666666"
     borderopacity="1"
     objecttolerance="10"
     gridtolerance="10"
     guidetolerance="10"
     inkscape:pageopacity="0"
     inkscape:pageshadow="2"
     inkscape:window-width="1920"
     inkscape:window-height="1006"
     id="namedview12"
     showgrid="false"
     inkscape:zoom="2.368982"
     inkscape:cx="4.4322836"
     inkscape:cy="62.05197"
     inkscape:window-x="0"
     inkscape:window-y="37"
     inkscape:window-maximized="1"
     inkscape:current-layer="svg5512"
     inkscape:document-units="px"
     units="px"
     fit-margin-top="5"
     fit-margin-right="5"
     fit-margin-bottom="5"
     fit-margin-left="5"
     inkscape:showpageshadow="2"
     inkscape:pagecheckerboard="0"
     inkscape:deskcolor="#d1d1d1" />
  <defs
     id="defs5514" />
  <metadata
     id="metadata5517">
    <rdf:RDF>
      <cc:Work
         rdf:about="">
        <dc:format>image/svg+xml</dc:format>
        <dc:type
           rdf:resource="http://purl.org/dc/dcmitype/StillImage" />
      </cc:Work>
    </rdf:RDF>
  </metadata>
  <g
     transform="translate(-518.49112,-149.48854)"
     id="g4413">
    <path
       d="m 534.12054,161.88159 v 10.40612 h 47.25268 c -9.52806,9.54312 -19.06966,19.07261 -28.62694,28.58644 h 12.59261 c 20.11218,0 36.40116,16.32948 36.40116,36.44165 0,20.11218 -16.28898,36.40117 -36.40116,36.40117 -20.11217,0 -36.44165,-16.28899 -36.44165,-36.40117 h -10.40612 c 0,25.8585 20.98928,46.8073 46.84777,46.8073 25.85849,0 46.80728,-20.9488 46.80728,-46.8073 0,-21.99252 -15.15229,-40.48031 -35.59135,-45.51157 l 29.96314,-29.92264 z"
       id="path4996-4-0-4-8-9-7-2-6-0-9-9-2"
       style="color:#000000;display:inline;overflow:visible;visibility:visible;fill:#000000;fill-opacity:1;fill-rule:evenodd;stroke:none;stroke-width:19.9998;marker:none;enable-background:accumulate"
       inkscape:connector-curvature="0"
       sodipodi:nodetypes="ccccsssccssccc" />
    <g
       transform="rotate(180,565.31865,237.59126)"
       id="g4409">
      <path
         d="m 565.33889,208.68886 c -15.80241,0 -28.62694,12.82454 -28.62694,28.62694 0,12.13086 7.56029,22.4873 18.22083,26.6429 v -11.74231 c -4.72379,-3.28183 -7.81471,-8.71082 -7.81471,-14.90059 0,-10.05608 8.16474,-18.22082 18.22082,-18.22082 10.05608,0 18.18034,8.16474 18.18034,18.22082 0,6.17974 -3.07517,11.61703 -7.77422,14.90059 v 11.74231 c 10.64945,-4.1556 18.18033,-14.51204 18.18033,-26.6429 0,-15.8024 -12.78404,-28.62694 -28.58645,-28.62694 z"
         id="path4996-4-0-4-2-1-9-8-5-8-9"
         style="color:#000000;display:inline;overflow:visible;visibility:visible;fill:#000000;fill-opacity:1;fill-rule:evenodd;stroke:none;stroke-width:20;marker:none;enable-background:accumulate"
         inkscape:connector-curvature="0" />
      <path
         d="m 565.33889,232.0925 c -2.87317,0 -5.2233,2.35013 -5.2233,5.2233 v 31.17786 h 10.40612 V 237.3158 c 0,-2.87317 -2.30965,-5.2233 -5.18282,-5.2233 z"
         id="rect5023-1-6-7-7-5-2-9-1-8-8"
         style="color:#000000;display:inline;overflow:visible;visibility:visible;fill:#000000;fill-opacity:1;fill-rule:evenodd;stroke:none;stroke-width:20;marker:none;enable-background:accumulate"
         inkscape:connector-curvature="0" />
    </g>
    <path
       d="m 630.85289,149.49143 c -5.72232,0.0544 -10.36388,0.85328 -11.49937,1.53864 -2.27103,1.37086 -2.80747,4.65767 -2.10552,5.42576 0.70195,0.76784 11.43046,7.65845 16.11531,9.92023 12.61445,6.09045 -1.28767,29.39594 -12.14722,25.22572 -7.69621,-2.95537 -16.42692,-11.75721 -17.8969,-11.82329 -1.46996,-0.0648 -3.36351,0.9263 -3.84662,3.4822 -0.48303,2.55591 3.00841,14.89689 11.7828,24.49689 10.52926,11.52022 26.92634,-1.20851 26.92634,9.31286 v 48.87231 a 13.017768,13.017768 0 0 0 26.03553,0 v -62.4367 -14.57666 c 0,-5.46709 6.70282,-27.38877 -15.46745,-36.56312 -5.37441,-2.22388 -12.17459,-2.92922 -17.8969,-2.87484 z"
       id="path5018-1-3-2-1-4-7-5-6"
       style="fill:#000000;fill-opacity:1;stroke:none"
       inkscape:connector-curvature="0" />
  </g>
</svg>
