<?xml version="1.0" encoding="utf-8"?>
<!-- Generator: Adobe Illustrator 16.0.3, SVG Export Plug-In . SVG Version: 6.00 Build 0)  -->
<!DOCTYPE svg PUBLIC "-//W3C//DTD SVG 1.1//EN" "http://www.w3.org/Graphics/SVG/1.1/DTD/svg11.dtd">
<svg version="1.1"
	 id="svg5512" xmlns:dc="http://purl.org/dc/elements/1.1/" xmlns:cc="http://creativecommons.org/ns#" xmlns:rdf="http://www.w3.org/1999/02/22-rdf-syntax-ns#" xmlns:svg="http://www.w3.org/2000/svg" xmlns:sodipodi="http://sodipodi.sourceforge.net/DTD/sodipodi-0.dtd" xmlns:inkscape="http://www.inkscape.org/namespaces/inkscape" sodipodi:docname="netz39-logo-final.svg" inkscape:version="0.48.5 r10040"
	 xmlns="http://www.w3.org/2000/svg" xmlns:xlink="http://www.w3.org/1999/xlink" x="0px" y="0px" width="279px" height="279px"
	 viewBox="10.5 10.5 279 279" enable-background="new 10.5 10.5 279 279" xml:space="preserve">
<sodipodi:namedview  units="px" fit-margin-left="5" fit-margin-top="5" inkscape:cy="149.81752" inkscape:cx="150" inkscape:zoom="1" showgrid="false" id="namedview12" guidetolerance="10" gridtolerance="10" objecttolerance="10" borderopacity="1" bordercolor="#666666" pagecolor="#ffffff" inkscape:window-height="799" inkscape:pageshadow="2" inkscape:pageopacity="0" inkscape:window-width="938" fit-margin-bottom="5" fit-margin-right="5" inkscape:document-units="px" inkscape:current-layer="svg5512" inkscape:window-maximized="0" inkscape:window-x="1815" inkscape:window-y="12">
	</sodipodi:namedview>
<g id="Ebene_2">
	<circle fill="#FFFFFF" cx="150" cy="150" r="139.5"/>
</g>
<g id="g4413" transform="translate(-448.05262,-67.701334)">
	<path id="path4996-4-0-4-8-9-7-2-6-0-9-9-2" sodipodi:nodetypes="ccccsssccssccc" inkscape:connector-curvature="0" d="
		M534.12,161.882v10.406h47.253c-9.528,9.543-19.07,19.073-28.627,28.586h12.592c20.112,0,36.401,16.33,36.401,36.441
		c0,20.112-16.289,36.401-36.401,36.401s-36.441-16.289-36.441-36.401h-10.406c0,25.858,20.989,46.808,46.848,46.808
		s46.808-20.949,46.808-46.808c0-21.992-15.152-40.48-35.592-45.511l29.963-29.923H534.12z"/>
	<g id="g4409" transform="matrix(-1,0,0,-1,1130.6373,475.18252)">
		<path id="path4996-4-0-4-2-1-9-8-5-8-9" inkscape:connector-curvature="0" d="M565.339,208.688
			c-15.802,0-28.627,12.825-28.627,28.627c0,12.131,7.561,22.488,18.221,26.644v-11.742c-4.724-3.282-7.815-8.711-7.815-14.901
			c0-10.056,8.165-18.221,18.221-18.221c10.056,0,18.181,8.165,18.181,18.221c0,6.181-3.075,11.617-7.774,14.901v11.742
			c10.649-4.156,18.181-14.513,18.181-26.644C593.926,221.513,581.141,208.688,565.339,208.688L565.339,208.688z"/>
		<path id="rect5023-1-6-7-7-5-2-9-1-8-8" inkscape:connector-curvature="0" d="M565.339,232.092c-2.873,0-5.223,2.35-5.223,5.223
			v31.179h10.406v-31.179C570.522,234.442,568.212,232.092,565.339,232.092z"/>
	</g>
	<path id="path5018-1-3-2-1-4-7-5-6" inkscape:connector-curvature="0" d="M630.853,149.491c-5.723,0.055-10.364,0.854-11.5,1.539
		c-2.271,1.371-2.808,4.658-2.105,5.426s11.431,7.659,16.115,9.92c12.615,6.09-1.287,29.396-12.146,25.226
		c-7.697-2.955-16.428-11.757-17.897-11.823c-1.47-0.065-3.364,0.926-3.847,3.482c-0.482,2.556,3.008,14.896,11.783,24.497
		c10.529,11.52,26.926-1.208,26.926,9.313v48.872c0.008,7.189,5.842,13.013,13.031,13.005c7.18-0.008,12.997-5.825,13.004-13.005
		v-62.437v-14.577c0-5.467,6.703-27.389-15.467-36.563C643.375,150.142,636.575,149.437,630.853,149.491L630.853,149.491z"/>
</g>
<path id="path7438-70-0-9-0-2" sodipodi:nodetypes="zzzzzzzzzz" inkscape:connector-curvature="0" d="M150,23.121
	C79.929,23.121,23.121,79.929,23.121,150c0,70.07,56.808,126.879,126.879,126.879c70.07,0,126.879-56.809,126.879-126.879
	C276.879,79.929,220.07,23.121,150,23.121z M259.454,150c0,60.461-48.987,109.26-109.454,109.454S40.931,206.992,40.507,150
	S89.54,40.507,150,40.507C210.461,40.507,259.454,89.54,259.454,150z"/>
</svg>
